<mxfile host="app.diagrams.net" modified="2022-03-30T21:21:01.913Z" agent="5.0 (Windows NT 10.0; Win64; x64) AppleWebKit/537.36 (KHTML, like Gecko) Chrome/99.0.4844.84 Safari/537.36" etag="8V3sov-uZI66E6UoUf_C" version="17.1.4" type="github">
  <diagram id="prtHgNgQTEPvFCAcTncT" name="Page-1">
    <mxGraphModel dx="914" dy="513" grid="1" gridSize="10" guides="1" tooltips="1" connect="1" arrows="1" fold="1" page="1" pageScale="1" pageWidth="827" pageHeight="1169" background="#FFF2CC" math="0" shadow="0">
      <root>
        <mxCell id="0" />
        <mxCell id="1" parent="0" />
        <mxCell id="d5TBdnguA71-KnGe8u-y-1" value="AL DÍA SIGUIENTE" style="swimlane;startSize=80;" vertex="1" parent="1">
          <mxGeometry x="300" y="10" width="200" height="160" as="geometry" />
        </mxCell>
        <mxCell id="d5TBdnguA71-KnGe8u-y-2" value="&lt;pre style=&quot;box-sizing: border-box ; font-family: , , &amp;#34;sf mono&amp;#34; , &amp;#34;menlo&amp;#34; , &amp;#34;consolas&amp;#34; , &amp;#34;liberation mono&amp;#34; , monospace ; font-size: 13.6px ; margin-top: 0px ; margin-bottom: 16px ; overflow-wrap: normal ; padding: 16px ; overflow: auto ; line-height: 1.45 ; border-radius: 6px ; color: rgb(36 , 41 , 47)&quot;&gt;&lt;code style=&quot;box-sizing: border-box ; font-family: , , &amp;#34;sf mono&amp;#34; , &amp;#34;menlo&amp;#34; , &amp;#34;consolas&amp;#34; , &amp;#34;liberation mono&amp;#34; , monospace ; padding: 0px ; margin: 0px ; background: transparent ; border-radius: 6px ; word-break: normal ; border: 0px ; display: inline ; overflow: visible ; line-height: inherit ; overflow-wrap: normal&quot;&gt;from time import sleep&lt;br/&gt;from numpy import append&lt;/code&gt;&lt;/pre&gt;" style="text;html=1;strokeColor=none;fillColor=none;align=center;verticalAlign=middle;whiteSpace=wrap;rounded=0;" vertex="1" parent="d5TBdnguA71-KnGe8u-y-1">
          <mxGeometry y="85" width="200" height="75" as="geometry" />
        </mxCell>
        <mxCell id="d5TBdnguA71-KnGe8u-y-5" value="" style="endArrow=none;html=1;rounded=0;" edge="1" parent="1">
          <mxGeometry width="50" height="50" relative="1" as="geometry">
            <mxPoint x="155" y="190" as="sourcePoint" />
            <mxPoint x="645" y="190" as="targetPoint" />
          </mxGeometry>
        </mxCell>
        <mxCell id="d5TBdnguA71-KnGe8u-y-7" value="" style="endArrow=none;html=1;rounded=0;" edge="1" parent="1">
          <mxGeometry width="50" height="50" relative="1" as="geometry">
            <mxPoint x="160" y="230" as="sourcePoint" />
            <mxPoint x="160" y="190" as="targetPoint" />
          </mxGeometry>
        </mxCell>
        <mxCell id="d5TBdnguA71-KnGe8u-y-8" value="" style="endArrow=none;html=1;rounded=0;" edge="1" parent="1">
          <mxGeometry width="50" height="50" relative="1" as="geometry">
            <mxPoint x="400" y="230" as="sourcePoint" />
            <mxPoint x="400" y="190" as="targetPoint" />
          </mxGeometry>
        </mxCell>
        <mxCell id="d5TBdnguA71-KnGe8u-y-9" value="" style="endArrow=none;html=1;rounded=0;" edge="1" parent="1">
          <mxGeometry width="50" height="50" relative="1" as="geometry">
            <mxPoint x="650" y="230" as="sourcePoint" />
            <mxPoint x="650" y="190" as="targetPoint" />
          </mxGeometry>
        </mxCell>
        <mxCell id="d5TBdnguA71-KnGe8u-y-10" value="&lt;h1&gt;class ciudad&lt;/h1&gt;&lt;p&gt;empres&lt;/p&gt;&lt;p&gt;city&lt;/p&gt;" style="text;html=1;strokeColor=none;fillColor=none;spacing=5;spacingTop=-20;whiteSpace=wrap;overflow=hidden;rounded=0;" vertex="1" parent="1">
          <mxGeometry x="70" y="240" width="170" height="120" as="geometry" />
        </mxCell>
        <mxCell id="d5TBdnguA71-KnGe8u-y-11" value="&lt;h1&gt;class empresa&lt;/h1&gt;&lt;p&gt;nombre_empresa&lt;/p&gt;&lt;p&gt;empleados(lista)&lt;/p&gt;" style="text;html=1;strokeColor=none;fillColor=none;spacing=5;spacingTop=-20;whiteSpace=wrap;overflow=hidden;rounded=0;" vertex="1" parent="1">
          <mxGeometry x="290" y="240" width="195" height="120" as="geometry" />
        </mxCell>
        <mxCell id="d5TBdnguA71-KnGe8u-y-12" value="&lt;h1&gt;class empleados&lt;/h1&gt;&lt;div&gt;nombre&lt;/div&gt;" style="text;html=1;strokeColor=none;fillColor=none;spacing=5;spacingTop=-20;whiteSpace=wrap;overflow=hidden;rounded=0;" vertex="1" parent="1">
          <mxGeometry x="560" y="240" width="170" height="120" as="geometry" />
        </mxCell>
      </root>
    </mxGraphModel>
  </diagram>
</mxfile>
